<?xml version="1.0" standalone="no"?>
<!DOCTYPE svg PUBLIC "-//W3C//DTD SVG 20010904//EN" "http://www.w3.org/TR/2001/REC-SVG-20010904/DTD/svg10.dtd">
<svg version="1.0" xmlns="http://www.w3.org/2000/svg" width="300.000000pt" height="178.000000pt"
    viewBox="0 0 300.000000 178.000000" preserveAspectRatio="xMidYMid meet">
    <metadata>
        Created by potrace 1.10, written by Peter Selinger 2001-2011
    </metadata>
    <g transform="translate(0.000000,178.000000) scale(0.100000,-0.100000)" fill="#fff" stroke="none">
        <path d="M1724 1516 c-4 -9 -4 -20 0 -23 3 -4 6 1 6 10 0 10 8 17 21 17 18 0
20 -4 14 -37 l-5 -38 20 34 c12 18 19 35 17 37 -2 2 -18 7 -35 10 -24 5 -33 3
-38 -10z" />
        <path d="M1100 1488 c-19 -11 -45 -27 -57 -35 l-23 -13 70 -140 c39 -77 72
-140 75 -140 3 0 -26 63 -65 139 l-70 140 52 28 c29 15 56 27 61 25 5 -1 6 2
2 8 -8 12 -4 14 -45 -12z" />
        <path d="M1165 1422 c14 -34 15 -45 5 -57 -10 -12 -10 -15 2 -15 7 0 15 -8 16
-17 3 -33 8 -48 17 -63 5 -8 11 -24 12 -35 3 -16 1 -17 -7 -5 -5 8 -10 11 -10
7 0 -4 7 -19 16 -32 16 -25 16 -25 -14 -21 -22 2 -29 -1 -25 -10 2 -7 11 -10
19 -7 8 3 14 0 14 -7 0 -6 4 -9 9 -6 5 3 12 -2 16 -12 12 -26 14 -43 5 -37 -9
6 -19 -25 -13 -42 8 -22 21 -14 17 10 -2 12 2 6 8 -13 6 -19 17 -38 22 -42 7
-5 7 -8 -2 -8 -9 0 -10 -5 -2 -19 6 -12 6 -22 1 -26 -5 -3 -13 4 -16 16 -4 11
-9 18 -12 16 -2 -3 4 -22 15 -43 12 -23 22 -33 26 -25 4 6 2 11 -3 11 -6 0
-11 5 -11 11 0 8 4 8 13 1 16 -14 41 -98 32 -112 -3 -6 -1 -9 7 -8 8 2 13 -6
12 -19 0 -12 3 -20 7 -18 9 6 21 -24 14 -35 -3 -5 -1 -11 5 -15 6 -4 8 -11 5
-16 -4 -5 -1 -9 5 -9 6 0 8 -4 5 -10 -3 -5 -1 -10 5 -10 6 0 9 -4 5 -10 -3 -5
5 -31 18 -57 14 -26 37 -87 53 -135 15 -48 31 -85 35 -82 4 2 5 -5 2 -16 -8
-29 -15 -25 -42 25 -28 54 -147 165 -176 165 -5 0 -23 7 -39 15 -16 9 -39 17
-50 20 -12 2 -21 4 -21 5 0 1 -11 3 -25 4 -14 0 -29 4 -35 8 -15 9 -480 -1
-480 -12 0 -1 -18 -3 -40 -5 -126 -10 -173 -15 -186 -20 -9 -3 -23 -36 -34
-78 -10 -40 -22 -80 -26 -89 -6 -10 -5 -19 1 -23 18 -11 11 -24 -21 -41 -17
-8 -60 -42 -95 -75 -35 -33 -75 -64 -89 -69 -25 -9 -46 -63 -49 -125 l-1 -30
80 3 c44 2 132 7 195 13 198 16 769 48 905 50 118 2 136 0 200 -24 89 -34 189
-36 253 -7 42 19 56 19 420 10 207 -6 447 -15 532 -20 202 -13 297 -13 306 1
3 6 -5 23 -18 37 -13 15 -36 44 -52 65 -15 20 -33 37 -41 37 -15 0 -129 123
-126 135 3 8 -128 94 -144 95 -5 0 18 -17 52 -38 35 -22 60 -41 57 -45 -3 -3
8 -15 25 -28 17 -13 31 -26 31 -31 0 -12 -28 -10 -32 3 -2 6 -114 31 -248 55
-309 56 -520 68 -635 36 -114 -32 -122 -33 -76 -12 24 11 85 28 135 36 115 20
228 14 466 -27 96 -17 201 -34 234 -40 58 -10 83 -5 57 10 -20 13 -352 69
-484 83 -136 14 -261 3 -361 -32 -40 -13 -63 -17 -75 -10 -13 8 -13 9 -1 10
13 0 13 2 0 9 -17 12 -33 4 -24 -11 4 -6 1 -9 -7 -6 -19 6 -19 29 -1 51 16 18
38 24 27 7 -10 -16 1 -12 64 20 117 59 278 87 513 91 69 1 141 5 160 8 33 5
33 5 -12 12 -25 3 -46 3 -48 -2 -2 -5 -9 -3 -17 4 -7 7 -11 15 -8 20 2 4 -3 7
-11 7 -9 0 -16 -4 -16 -10 0 -5 -5 -10 -11 -10 -5 0 -7 5 -3 12 5 8 -15 10
-82 5 -169 -12 -318 -49 -444 -110 -82 -40 -88 -42 -75 -29 15 16 130 72 193
93 108 37 403 78 547 77 70 -1 175 7 175 14 0 9 -49 23 -67 20 -6 -1 -14 2
-18 8 -8 13 -35 13 -35 0 0 -5 8 -6 18 -3 14 6 15 4 4 -9 -10 -13 -21 -14 -60
-6 -26 5 -81 7 -122 3 -122 -10 -350 -52 -427 -79 -192 -66 -325 -172 -395
-316 -15 -30 -17 -32 -18 -12 0 13 -4 21 -8 18 -10 -6 -4 123 9 194 5 30 12
93 14 140 6 118 21 204 61 354 13 49 21 93 18 97 -3 5 0 9 6 9 7 0 10 6 7 14
-3 8 -3 16 1 18 10 4 54 119 48 125 -2 2 -9 -12 -16 -31 -6 -20 -16 -35 -22
-33 -10 2 -44 -99 -52 -153 -2 -14 -6 -32 -9 -40 -10 -25 -45 -164 -46 -180 0
-15 -8 -55 -11 -55 -1 0 -3 -7 -5 -15 -2 -8 -6 -28 -10 -45 -13 -60 -16 -82
-21 -170 -6 -90 -10 -110 -18 -84 -10 33 -101 322 -128 404 -15 50 -31 97 -35
105 -3 8 -7 26 -9 39 -2 13 -8 29 -13 34 -6 6 -11 17 -11 23 0 7 -5 25 -12 41
-6 15 -12 31 -13 36 -2 4 -3 8 -5 10 -1 1 -3 10 -5 19 -4 23 -26 91 -34 103
-3 6 -7 19 -8 30 -5 32 -44 139 -55 150 -5 6 -2 -9 7 -33z m-65 -809 c14 -3
35 -8 46 -9 44 -5 104 -25 104 -34 0 -6 5 -9 11 -8 6 2 13 -2 15 -8 3 -6 -9
-8 -31 -6 -21 3 -32 8 -28 15 4 6 1 7 -6 2 -7 -4 -9 -11 -4 -15 14 -13 70 -19
80 -9 6 6 15 4 24 -7 12 -16 12 -17 -1 -9 -8 4 -5 -2 7 -14 12 -11 26 -21 30
-21 5 0 43 -36 86 -80 l78 -80 -7 38 c-4 20 -3 34 2 29 4 -4 8 -31 9 -59 1
-50 1 -50 -14 -27 -9 13 -35 44 -57 69 -38 40 -43 43 -60 30 -17 -14 -18 -14
-6 2 12 15 8 20 -35 42 -93 47 -165 60 -333 60 -195 0 -300 -5 -278 -13 10 -3
-20 -7 -65 -8 -45 -1 -133 -10 -194 -21 -62 -10 -113 -15 -113 -11 0 4 12 34
28 68 27 60 28 61 67 61 88 0 321 22 330 32 6 6 291 -2 315 -9z m5 -113 c122
-12 215 -37 194 -52 -10 -7 -7 -8 12 -4 31 7 70 -16 49 -29 -9 -6 -11 -4 -5 5
6 10 4 12 -7 7 -9 -3 -36 0 -60 8 -112 33 -296 27 -482 -16 -63 -15 -85 -24
-75 -31 9 -6 2 -7 -21 -3 -27 5 -32 4 -20 -5 12 -9 10 -11 -10 -6 -14 3 -63
-7 -115 -25 -50 -16 -79 -27 -65 -25 14 3 44 8 68 12 23 4 42 11 42 16 0 5 4
6 10 3 5 -3 60 5 122 19 294 65 516 58 658 -21 31 -17 38 -19 21 -5 -13 11
-20 21 -15 24 5 3 4 4 -2 2 -6 -1 -42 9 -80 23 -83 31 -254 42 -380 24 -155
-21 -164 -22 -104 -6 83 22 252 33 346 24 72 -7 112 -18 198 -54 14 -6 17 -5
11 4 -6 10 -3 11 14 1 12 -6 19 -15 16 -20 -3 -5 4 -14 15 -20 11 -6 18 -15
15 -21 -4 -5 -2 -8 3 -7 5 2 26 -12 47 -31 36 -32 39 -33 51 -16 9 12 14 14
14 5 0 -10 4 -9 18 3 10 10 24 17 30 17 7 0 12 5 12 11 0 6 -7 9 -15 5 -9 -3
-15 0 -15 10 0 12 4 13 20 4 16 -9 27 -7 50 10 17 12 35 18 41 14 8 -5 9 -3 4
6 -6 10 -4 12 11 6 10 -4 15 -3 10 1 -10 10 -56 11 -50 1 3 -4 0 -8 -6 -8 -7
0 -9 7 -6 16 3 8 2 12 -4 9 -6 -4 -7 2 -4 12 5 14 4 15 -4 4 -6 -8 -8 -21 -5
-30 4 -12 3 -13 -5 -3 -7 11 -10 11 -15 -2 -4 -9 -3 -15 1 -15 19 3 25 -2 13
-10 -9 -6 -22 -6 -33 0 -16 9 -14 14 22 51 39 41 47 64 13 37 -15 -11 -15 -10
1 9 18 21 43 32 32 13 -6 -10 17 -33 30 -30 29 5 37 -3 15 -15 l-24 -13 32
-11 c23 -8 30 -8 25 0 -5 7 0 9 14 6 12 -4 20 -2 17 2 -10 16 90 31 225 35 92
2 122 1 95 -5 -33 -7 -27 -8 30 -5 39 2 90 0 115 -5 37 -7 33 -8 -25 -3 -90 7
-81 -3 15 -16 41 -6 86 -13 100 -16 14 -3 45 -7 69 -10 24 -3 48 -8 52 -11 10
-6 19 -7 129 -23 149 -22 182 -31 169 -47 -10 -12 -9 -13 5 -8 18 7 60 -28 49
-40 -4 -3 3 -6 15 -6 13 0 32 -16 53 -45 18 -25 36 -45 41 -45 4 0 8 -4 8 -8
0 -5 -53 -8 -117 -7 -300 6 -403 9 -403 15 0 10 -303 42 -415 42 -127 1 -237
-10 -229 -23 3 -5 -16 -9 -41 -9 -26 0 -55 -4 -65 -10 -27 -15 -44 -4 -90 56
l-40 53 -60 -41 c-57 -39 -61 -40 -92 -27 -67 28 -576 1 -793 -41 -104 -21
-473 -38 -488 -24 -3 4 0 13 8 21 8 8 15 23 15 33 0 30 11 50 29 50 9 0 43 27
76 59 67 66 100 84 90 48 -6 -21 -6 -22 9 -3 9 11 16 25 16 32 0 7 4 14 9 16
4 2 12 14 16 27 6 20 4 23 -9 18 -9 -4 -16 -2 -16 3 0 11 13 15 143 40 60 11
127 18 150 15 30 -3 35 -2 17 3 -18 6 -3 9 50 9 41 1 116 6 165 11 123 13 118
13 230 2z m-322 -107 c-7 -2 -19 -2 -25 0 -7 3 -2 5 12 5 14 0 19 -2 13 -5z
m1570 0 c-7 -2 -21 -2 -30 0 -10 3 -4 5 12 5 17 0 24 -2 18 -5z m50 -10 c-7
-2 -19 -2 -25 0 -7 3 -2 5 12 5 14 0 19 -2 13 -5z m137 -22 c47 -11 76 -19 65
-20 -11 0 -58 8 -105 18 -47 11 -76 19 -65 20 11 0 58 -8 105 -18z m133 -28
c-7 -2 -19 -2 -25 0 -7 3 -2 5 12 5 14 0 19 -2 13 -5z m-1079 -34 c-3 -5 -10
-7 -15 -3 -5 3 -7 10 -3 15 3 5 10 7 15 3 5 -3 7 -10 3 -15z m-54 -79 c0 -5
-5 -10 -11 -10 -5 0 -7 5 -4 10 3 6 8 10 11 10 2 0 4 -4 4 -10z m21 -41 c11
-11 19 -22 17 -24 -6 -6 -116 -13 -122 -8 -8 8 47 52 67 53 9 0 26 -9 38 -21z
m-306 -10 c-44 -4 -120 -10 -170 -13 -49 -3 -165 -11 -256 -17 -92 -6 -175 -9
-185 -6 -11 3 -1 6 21 7 22 1 144 10 270 20 127 9 268 18 315 17 l85 0 -80 -8z
m830 -19 l170 -7 -176 -1 c-152 -2 -178 0 -183 14 -4 10 -2 13 7 7 6 -4 89
-10 182 -13z m63 13 c-21 -2 -57 -2 -80 0 -24 2 -7 4 37 4 44 0 63 -2 43 -4z
m-263 -12 c3 -6 -10 -7 -32 -4 -50 8 -55 13 -10 13 20 0 38 -4 42 -9z m-307
-18 c-10 -2 -28 -2 -40 0 -13 2 -5 4 17 4 22 1 32 -1 23 -4z" />
        <path d="M858 578 c5 -5 16 -8 23 -6 8 3 3 7 -10 11 -17 4 -21 3 -13 -5z" />
        <path d="M517 553 c-4 -3 -7 -13 -7 -22 1 -13 3 -13 11 2 11 19 8 33 -4 20z" />
        <path d="M660 460 c-107 -17 -211 -32 -230 -35 -52 -6 -51 -8 10 -14 35 -4 64
-2 80 6 32 16 110 17 110 1 0 -6 -3 -9 -6 -5 -3 3 -27 -1 -52 -9 -26 -8 -64
-17 -86 -20 -41 -6 -131 -43 -123 -50 2 -3 26 0 53 6 27 7 57 13 67 15 9 2 79
19 155 38 236 60 299 70 432 71 69 1 148 -2 175 -6 l50 -7 -50 15 c-34 11
-103 17 -220 20 -150 3 -193 0 -365 -26z m17 -26 c-3 -3 -12 -4 -19 -1 -8 3
-5 6 6 6 11 1 17 -2 13 -5z" />
        <path d="M598 463 c7 -3 16 -2 19 1 4 3 -2 6 -13 5 -11 0 -14 -3 -6 -6z" />
        <path d="M1677 424 c-8 -8 10 -44 22 -44 12 0 8 27 -5 40 -6 6 -13 7 -17 4z" />
        <path d="M1967 413 c18 -2 50 -2 70 0 21 2 7 4 -32 4 -38 0 -55 -2 -38 -4z" />
        <path d="M1878 403 c7 -3 16 -2 19 1 4 3 -2 6 -13 5 -11 0 -14 -3 -6 -6z" />
        <path d="M910 393 c-31 -4 -290 -57 -413 -84 -26 -6 -54 -8 -63 -5 -21 8 -65
-4 -58 -15 3 -6 -6 -7 -23 -3 -22 5 -25 4 -17 -6 9 -9 72 1 290 46 l279 58
188 0 c103 1 178 4 165 8 -25 6 -290 7 -348 1z" />
        <path d="M2017 394 c-2 -3 -47 -9 -98 -15 -100 -10 -200 -37 -261 -72 -55 -30
-40 -32 19 -2 28 13 90 34 139 46 119 28 296 22 559 -20 105 -17 201 -30 215
-30 37 1 -290 55 -416 69 -60 6 -119 15 -131 20 -11 5 -23 6 -26 4z" />
        <path d="M922 365 c-159 -23 -517 -94 -509 -101 4 -5 95 11 201 35 26 7 56 9
66 6 10 -3 21 -1 25 5 5 7 22 10 44 6 28 -4 31 -3 16 4 -15 7 -5 9 35 5 42 -3
49 -2 30 5 -19 7 -10 8 35 5 45 -3 52 -1 30 5 -21 6 -7 8 50 5 51 -1 64 0 35
4 -25 3 31 6 124 6 93 0 156 -3 140 -7 -18 -5 -11 -6 21 -3 31 3 43 2 30 -4
-17 -7 -15 -8 11 -14 17 -3 41 -3 54 0 15 4 21 2 17 -4 -5 -7 1 -9 15 -6 17 3
19 2 10 -5 -11 -7 -10 -10 3 -16 9 -3 21 -4 26 -1 4 3 21 -2 36 -11 l28 -16
-29 25 c-15 13 -46 30 -67 37 -21 7 -36 17 -32 23 3 5 -3 6 -17 2 -12 -4 -20
-3 -17 1 3 5 -11 10 -31 10 -21 1 -91 4 -157 7 -82 4 -153 2 -223 -8z m235 -2
c-20 -2 -52 -2 -70 0 -17 2 0 4 38 4 39 0 53 -2 32 -4z m190 -29 c-3 -3 -12
-4 -19 -1 -8 3 -5 6 6 6 11 1 17 -2 13 -5z" />
        <path d="M1298 373 c7 -3 16 -2 19 1 4 3 -2 6 -13 5 -11 0 -14 -3 -6 -6z" />
        <path d="M2001 346 c3 -3 52 -10 110 -16 57 -6 122 -13 144 -16 22 -4 37 -3
33 1 -7 7 -104 21 -222 31 -39 3 -68 3 -65 0z" />
        <path d="M294 306 c-3 -9 -11 -16 -18 -16 -6 -1 -31 -26 -56 -55 -24 -30 -49
-55 -55 -55 -7 0 -17 -11 -23 -25 -19 -41 1 -29 67 40 35 36 66 65 70 65 10 0
33 51 27 58 -3 3 -8 -3 -12 -12z" />
        <path d="M448 313 c7 -3 16 -2 19 1 4 3 -2 6 -13 5 -11 0 -14 -3 -6 -6z" />
        <path d="M1948 303 c6 -2 18 -2 25 0 6 3 1 5 -13 5 -14 0 -19 -2 -12 -5z" />
        <path d="M2008 303 c6 -2 18 -2 25 0 6 3 1 5 -13 5 -14 0 -19 -2 -12 -5z" />
        <path d="M1065 294 c46 -7 123 -8 118 -1 -2 4 -34 6 -71 6 -37 -1 -58 -3 -47
-5z" />
        <path d="M1768 293 c7 -3 16 -2 19 1 4 3 -2 6 -13 5 -11 0 -14 -3 -6 -6z" />
        <path d="M1840 290 c-11 -8 -7 -9 15 -4 37 8 45 14 19 14 -10 0 -26 -5 -34
-10z" />
        <path d="M2633 293 c9 -2 23 -2 30 0 6 3 -1 5 -18 5 -16 0 -22 -2 -12 -5z" />
        <path d="M988 283 c12 -2 30 -2 40 0 9 3 -1 5 -23 4 -22 0 -30 -2 -17 -4z" />
        <path d="M1218 283 c6 -2 18 -2 25 0 6 3 1 5 -13 5 -14 0 -19 -2 -12 -5z" />
        <path d="M2488 283 c7 -3 16 -2 19 1 4 3 -2 6 -13 5 -11 0 -14 -3 -6 -6z" />
        <path d="M928 273 c6 -2 18 -2 25 0 6 3 1 5 -13 5 -14 0 -19 -2 -12 -5z" />
        <path d="M1684 264 c-18 -14 -18 -14 6 -3 31 14 36 19 24 19 -6 0 -19 -7 -30
-16z" />
        <path d="M2058 273 c6 -2 18 -2 25 0 6 3 1 5 -13 5 -14 0 -19 -2 -12 -5z" />
        <path d="M2108 273 c7 -3 16 -2 19 1 4 3 -2 6 -13 5 -11 0 -14 -3 -6 -6z" />
        <path d="M2145 270 c3 -5 10 -10 16 -10 5 0 9 5 9 10 0 6 -7 10 -16 10 -8 0
-12 -4 -9 -10z" />
        <path d="M800 262 c0 -5 14 -7 30 -4 17 2 30 6 30 8 0 2 -13 4 -30 4 -16 0
-30 -4 -30 -8z" />
        <path d="M2220 259 c25 -4 61 -7 80 -7 32 0 32 1 -10 9 -25 4 -61 7 -80 7 -32
0 -32 -1 10 -9z" />
        <path d="M300 250 c-23 -7 -23 -8 -3 -9 12 -1 25 4 28 9 3 6 5 10 3 9 -2 -1
-14 -5 -28 -9z" />
        <path d="M348 253 c7 -3 16 -2 19 1 4 3 -2 6 -13 5 -11 0 -14 -3 -6 -6z" />
        <path d="M630 240 c-111 -19 -194 -29 -247 -30 -18 0 -33 -4 -33 -8 0 -13 424
39 439 53 8 9 -52 3 -159 -15z" />
        <path d="M1481 244 c-18 -13 -28 -14 -47 -5 -31 14 -34 14 -34 -1 0 -6 3 -8 7
-5 3 4 16 1 28 -7 18 -12 24 -11 50 10 34 27 31 32 -4 8z" />
        <path d="M1625 240 c-3 -6 1 -7 9 -4 18 7 21 14 7 14 -6 0 -13 -4 -16 -10z" />
        <path d="M2360 246 c0 -2 11 -6 25 -8 14 -3 25 -1 25 3 0 5 -11 9 -25 9 -14 0
-25 -2 -25 -4z" />
        <path d="M2423 243 c4 -6 34 -13 67 -16 33 -4 73 -10 88 -13 19 -5 24 -3 17 4
-5 6 -39 13 -75 17 -36 3 -73 9 -84 12 -10 3 -16 1 -13 -4z" />
        <path d="M1698 233 c7 -3 16 -2 19 1 4 3 -2 6 -13 5 -11 0 -14 -3 -6 -6z" />
        <path d="M2108 233 c12 -2 32 -2 45 0 12 2 2 4 -23 4 -25 0 -35 -2 -22 -4z" />
        <path d="M2616 218 c-6 -4 39 -7 99 -6 112 1 105 5 -19 10 -37 2 -73 0 -80 -4z" />
        <path d="M918 213 c7 -3 16 -2 19 1 4 3 -2 6 -13 5 -11 0 -14 -3 -6 -6z" />
        <path d="M1600 206 c0 -2 7 -9 15 -16 9 -7 15 -8 15 -2 0 5 -7 12 -15 16 -8 3
-15 4 -15 2z" />
        <path d="M236 191 c-3 -5 16 -6 42 -4 69 7 74 11 15 12 -28 1 -54 -3 -57 -8z" />
        <path d="M658 193 c6 -2 18 -2 25 0 6 3 1 5 -13 5 -14 0 -19 -2 -12 -5z" />
        <path d="M446 171 c-2 -3 9 -7 25 -8 15 -1 31 1 33 6 3 4 -8 8 -25 8 -16 0
-31 -3 -33 -6z" />
        <path d="M2540 176 c0 -8 61 -12 66 -4 3 4 -11 8 -30 8 -20 0 -36 -2 -36 -4z" />
        <path d="M2643 163 c9 -2 25 -2 35 0 9 3 1 5 -18 5 -19 0 -27 -2 -17 -5z" />
        <path d="M256 151 c-3 -4 6 -6 19 -3 14 2 25 6 25 8 0 8 -39 4 -44 -5z" />
        <path d="M328 153 c12 -2 30 -2 40 0 9 3 -1 5 -23 4 -22 0 -30 -2 -17 -4z" />
        <path d="M1686 1354 c-10 -31 -16 -58 -14 -60 3 -2 12 21 22 52 10 31 16 58
14 60 -3 2 -12 -21 -22 -52z" />
        <path d="M1732 1385 c-7 -14 -12 -31 -12 -38 1 -7 7 3 16 22 17 39 13 54 -4
16z" />
        <path d="M1658 1251 c-2 -17 -1 -28 3 -26 10 7 18 55 9 55 -4 0 -10 -13 -12
-29z" />
        <path d="M1154 1239 c-3 -6 -2 -15 3 -20 5 -5 9 -1 10 11 2 22 -2 25 -13 9z" />
        <path d="M1180 1121 c0 -6 4 -13 10 -16 6 -3 7 1 4 9 -7 18 -14 21 -14 7z" />
        <path d="M1206 1095 c-9 -26 -7 -32 5 -12 6 10 9 21 6 23 -2 3 -7 -2 -11 -11z" />
        <path d="M1237 1027 c-3 -8 1 -14 8 -14 7 0 11 6 8 14 -3 7 -6 13 -8 13 -2 0
-5 -6 -8 -13z" />
        <path d="M1296 867 c3 -10 9 -15 12 -12 3 3 0 11 -7 18 -10 9 -11 8 -5 -6z" />
        <path d="M2385 791 c-16 -4 -54 -6 -82 -5 -29 1 -51 -2 -48 -6 2 -4 -19 -6
-48 -4 -37 2 -46 0 -32 -6 13 -6 0 -7 -38 -4 -34 3 -56 1 -53 -4 8 -13 116
-13 116 0 0 6 13 7 31 3 19 -4 41 -2 56 6 18 10 31 10 54 2 23 -9 35 -8 57 3
31 16 75 18 101 5 10 -6 29 -11 43 -13 14 -2 33 -11 42 -21 19 -19 42 -22 50
-8 7 11 -22 23 -36 14 -6 -3 -8 -1 -5 4 6 10 -37 29 -55 25 -5 -1 -8 2 -8 6 0
10 -105 12 -145 3z" />
        <path d="M1980 748 c-19 -5 -44 -11 -55 -14 -11 -3 -27 -7 -35 -9 -8 -2 -15
-4 -15 -5 0 -1 -12 -3 -27 -5 -38 -5 -177 -79 -213 -114 -39 -37 -69 -74 -74
-92 -12 -37 -9 -118 5 -130 10 -8 14 -8 14 0 0 6 -3 11 -7 11 -5 0 -9 18 -11
41 -2 31 4 52 25 85 15 24 36 47 46 50 9 3 17 9 17 14 0 13 103 77 161 100 69
26 200 60 233 60 14 0 26 4 26 9 0 11 -41 11 -90 -1z" />
        <path d="M2535 648 c17 -5 37 -10 45 -11 8 -1 29 -12 47 -24 17 -13 39 -23 48
-23 15 0 15 -3 5 -15 -11 -13 -10 -14 4 -9 27 10 14 25 -50 61 -37 21 -72 32
-94 32 l-35 -1 30 -10z" />
        <path d="M2400 639 c0 -5 5 -7 10 -4 6 3 10 8 10 11 0 2 -4 4 -10 4 -5 0 -10
-5 -10 -11z" />
        <path d="M2035 565 c-105 -16 -156 -31 -233 -66 -34 -15 -69 -26 -76 -23 -8 3
-17 0 -22 -7 -5 -8 -2 -11 7 -7 8 3 26 0 40 -8 13 -7 18 -13 10 -14 -8 0 -12
-2 -10 -5 3 -2 39 8 80 23 70 25 84 27 244 27 133 0 197 -5 295 -23 69 -13
141 -25 160 -28 33 -4 34 -4 10 7 -14 7 -42 20 -63 31 -21 10 -42 16 -46 14
-4 -3 -36 2 -72 10 -49 12 -106 15 -244 11 -161 -3 -189 -7 -260 -30 -85 -28
-114 -31 -43 -4 117 44 168 52 353 51 113 -1 221 -7 290 -18 61 -9 128 -18
150 -20 l40 -4 -30 13 c-16 8 -45 17 -62 21 -18 3 -33 9 -33 13 0 10 -116 16
-320 15 -166 -1 -207 -4 -274 -23 -44 -11 -81 -19 -84 -17 -6 6 90 33 163 45
146 25 403 23 649 -5 41 -5 57 -4 53 4 -4 5 -16 8 -27 5 -10 -3 -40 2 -66 11
-39 13 -90 16 -273 15 -129 -1 -260 -6 -306 -14z m-234 -85 c-24 -11 -46 -20
-50 -20 -12 1 64 39 79 39 8 0 -5 -8 -29 -19z" />
        <path d="M2602 523 c14 -2 32 -11 38 -19 7 -8 24 -14 39 -13 24 1 22 2 -14 20
-22 10 -51 18 -65 17 -25 -1 -25 -1 2 -5z" />
        <path d="M2680 480 l-35 -8 42 1 c23 0 40 4 37 9 -3 4 -6 7 -7 7 -1 -1 -18 -5
-37 -9z" />
    </g>
</svg>